# xmcd
#
# Track frame offsets:
#	150
#	16998
#	33733
#	49713
#	73881
#	88498
#	104457
#	122053
#	167068
#	181742
#	196849
#	210111
#	226763
#	242213
#
# Disc length: 3438 seconds
#
# Revision: 0
# Processed by: cddbd v1.5.2PL0 Copyright (c) Steve Scherf et al.
# Submitted via: EasyCDDAExtractor 16.0.6.1
#
DISCID=bb0d6c0e
DTITLE=Άνευ ερμηνευτού - Αυθεντικοί Έλλ. δεξιοτέχνες 1-Διάφοροι
DYEAR=1996
DGENRE=Ποικίλη
TTITLE0=Άνευ ερμηνευτού - Χαμογελούν τα χείλη μου [παραδοσιακό, κλ Γιώργος Μάγ
TTITLE0=γας]
TTITLE1=Άνευ ερμηνευτού - Ήλιος [παραδοσιακό, βιολί Γιώργος Κόρος]
TTITLE2=Άνευ ερμηνευτού - Συρτό πρεβεζιάνικο [παραδοσιακό, κλ Τάσος Χαλκιάς]
TTITLE3=Άνευ ερμηνευτού - Αραβικές νύχτες [παραδ., βιολί Θανάσης Χάρος, ούτι Ν
TTITLE3=ίκος Σαραγούδας]
TTITLE4=Άνευ ερμηνευτού - Σκάρος [παραδοσιακό, κλ Κίτσος Χαρισιάδης]
TTITLE5=Πασχάλης Σ.-Λήτου Πολυξένη - Δέλβινο και Τσαμουριά [παραδοσιακό, κλ Ηλ
TTITLE5=ίας Λήτος]
TTITLE6=Άνευ ερμηνευτού - Μοιρολόϊ [διασκ. Αριστείδης Βασιλάρης, φλογέρα ιδίου
TTITLE6=]
TTITLE7=Άνευ ερμηνευτού - ''Δρόμοι'' της αυγής [παραδοσιακό, κλ Γιώργος Ουρούμ
TTITLE7=ης]
TTITLE8=Άνευ ερμηνευτού - Σαν μαγεμένο [Δ. Γκόγκος ή Μπαγιαντέρας, μπουζ. Ιορδ
TTITLE8=άνης]
TTITLE9=Άνευ ερμηνευτού - Συλιβριανό [παραδοσιακό, κλ Γκας Γκαντίνης]
TTITLE10=Άνευ ερμηνευτού - Ζήλια μου [Χρήστος Νικολόπουλος, μπουζ. ιδίου]
TTITLE11=Άνευ ερμηνευτού - Ωραίο αγόρι [παραδοσιακό, ακορντεόν Λάζαρος Κουλαξί
TTITLE11=ζης]
TTITLE12=Άνευ ερμηνευτού - Μακεδονίτικο [ούτι Νίκος Σαραγούδας, βιολί Θανάσης 
TTITLE12=Χάρος]
TTITLE13=Άνευ ερμηνευτού - Δωδεκανησιακή σούστα [παραδοσιακό, βιολί Ιωάννης Κο
TTITLE13=υλιανός]
EXTD=
EXTT0=
EXTT1=
EXTT2=
EXTT3=
EXTT4=
EXTT5=
EXTT6=
EXTT7=
EXTT8=
EXTT9=
EXTT10=
EXTT11=
EXTT12=
EXTT13=
PLAYORDER=
